HIERARCHY
ROOT Hips
{
    OFFSET   0.000000   0.000000   0.000000
    CHANNELS 6 Xposition Yposition Zposition Zrotation Xrotation Yrotation
    JOINT Chest
    {
        OFFSET   0.000000   8.007230   0.000000
        CHANNELS 3 Zrotation Xrotation Yrotation
        JOINT Chest2
        {
            OFFSET   0.000000  22.077100   0.000000
            CHANNELS 3 Zrotation Xrotation Yrotation
            JOINT Neck
            {
                OFFSET   0.000000  23.254800   0.000000
                CHANNELS 3 Zrotation Xrotation Yrotation
                JOINT Head
                {
                    OFFSET   0.000010  14.370000   1.956600
                    CHANNELS 3 Zrotation Xrotation Yrotation
                    End Site
                    {
                        OFFSET   0.000000  19.566000   0.000000
                    }
                }
            }
            JOINT LeftCollar
            {
                OFFSET   3.911900  19.017000  -0.467062
                CHANNELS 3 Zrotation Xrotation Yrotation
                JOINT LeftShoulder
                {
                    OFFSET  10.383700   0.000000   0.000000
                    CHANNELS 3 Zrotation Xrotation Yrotation
                    JOINT LeftElbow
                    {
                        OFFSET  26.662100   0.001193   0.000835
                        CHANNELS 3 Zrotation Xrotation Yrotation
                        JOINT LeftWrist
                        {
                            OFFSET  28.869000  -0.000058  -0.000075
                            CHANNELS 3 Zrotation Xrotation Yrotation
                            JOINT LeftFinger0
                            {
                                OFFSET   2.044660  -2.323460   3.252850
                                CHANNELS 3 Zrotation Xrotation Yrotation
                                JOINT LeftFinger01
                                {
                                    OFFSET   3.088130   0.000000   0.000000
                                    CHANNELS 3 Zrotation Xrotation Yrotation
                                    JOINT LeftFinger02
                                    {
                                        OFFSET   2.639450   0.000000   0.000000
                                        CHANNELS 3 Zrotation Xrotation Yrotation
                                        End Site
                                        {
                                            OFFSET   2.582190   0.000000   0.000000
                                        }
                                    }
                                }
                            }
                            JOINT LeftFinger1
                            {
                                OFFSET   8.364480   0.000000   3.252850
                                CHANNELS 3 Zrotation Xrotation Yrotation
                                JOINT LeftFinger11
                                {
                                    OFFSET   4.646920   0.000000   0.000000
                                    CHANNELS 3 Zrotation Xrotation Yrotation
                                    JOINT LeftFinger12
                                    {
                                        OFFSET   2.323460   0.000000   0.000000
                                        CHANNELS 3 Zrotation Xrotation Yrotation
                                        End Site
                                        {
                                            OFFSET   2.273050   0.000000   0.000000
                                        }
                                    }
                                }
                            }
                            JOINT LeftFinger2
                            {
                                OFFSET   8.364490   0.000016   1.078090
                                CHANNELS 3 Zrotation Xrotation Yrotation
                                JOINT LeftFinger21
                                {
                                    OFFSET   5.111620   0.000000   0.000000
                                    CHANNELS 3 Zrotation Xrotation Yrotation
                                    JOINT LeftFinger22
                                    {
                                        OFFSET   2.788150   0.000012   0.000000
                                        CHANNELS 3 Zrotation Xrotation Yrotation
                                        End Site
                                        {
                                            OFFSET   2.727660   0.000000   0.000000
                                        }
                                    }
                                }
                            }
                            JOINT LeftFinger3
                            {
                                OFFSET   7.899780   0.000014  -1.078090
                                CHANNELS 3 Zrotation Xrotation Yrotation
                                JOINT LeftFinger31
                                {
                                    OFFSET   4.646930   0.000000   0.000000
                                    CHANNELS 3 Zrotation Xrotation Yrotation
                                    JOINT LeftFinger32
                                    {
                                        OFFSET   2.323470   0.000000   0.000000
                                        CHANNELS 3 Zrotation Xrotation Yrotation
                                        End Site
                                        {
                                            OFFSET   2.273050   0.000000   0.000000
                                        }
                                    }
                                }
                            }
                            JOINT LeftFinger4
                            {
                                OFFSET   7.435090   0.000000  -3.252850
                                CHANNELS 3 Zrotation Xrotation Yrotation
                                JOINT LeftFinger41
                                {
                                    OFFSET   3.717550   0.000000   0.000000
                                    CHANNELS 3 Zrotation Xrotation Yrotation
                                    JOINT LeftFinger42
                                    {
                                        OFFSET   1.858770   0.000000   0.000000
                                        CHANNELS 3 Zrotation Xrotation Yrotation
                                        End Site
                                        {
                                            OFFSET   1.818440   0.000000   0.000000
                                        }
                                    }
                                }
                            }
                        }
                    }
                }
            }
            JOINT RightCollar
            {
                OFFSET  -3.911900  19.017000  -0.467063
                CHANNELS 3 Zrotation Xrotation Yrotation
                JOINT RightShoulder
                {
                    OFFSET -10.383700   0.000023   0.000000
                    CHANNELS 3 Zrotation Xrotation Yrotation
                    JOINT RightElbow
                    {
                        OFFSET -26.662100   0.001246   0.001011
                        CHANNELS 3 Zrotation Xrotation Yrotation
                        JOINT RightWrist
                        {
                            OFFSET -28.869000  -0.000026  -0.000078
                            CHANNELS 3 Zrotation Xrotation Yrotation
                            JOINT RightFinger0
                            {
                                OFFSET  -2.044660  -2.323490   3.252850
                                CHANNELS 3 Zrotation Xrotation Yrotation
                                JOINT RightFinger01
                                {
                                    OFFSET  -3.088130   0.000000   0.000000
                                    CHANNELS 3 Zrotation Xrotation Yrotation
                                    JOINT RightFinger02
                                    {
                                        OFFSET  -2.639460   0.000000   0.000000
                                        CHANNELS 3 Zrotation Xrotation Yrotation
                                        End Site
                                        {
                                            OFFSET  -2.582190   0.000000   0.000000
                                        }
                                    }
                                }
                            }
                            JOINT RightFinger1
                            {
                                OFFSET  -8.364480   0.000000   3.252850
                                CHANNELS 3 Zrotation Xrotation Yrotation
                                JOINT RightFinger11
                                {
                                    OFFSET  -4.646920   0.000000   0.000000
                                    CHANNELS 3 Zrotation Xrotation Yrotation
                                    JOINT RightFinger12
                                    {
                                        OFFSET  -2.323470   0.000000   0.000000
                                        CHANNELS 3 Zrotation Xrotation Yrotation
                                        End Site
                                        {
                                            OFFSET  -2.273050   0.000000   0.000000
                                        }
                                    }
                                }
                            }
                            JOINT RightFinger2
                            {
                                OFFSET  -8.364480   0.000000   1.078090
                                CHANNELS 3 Zrotation Xrotation Yrotation
                                JOINT RightFinger21
                                {
                                    OFFSET  -5.111620   0.000000   0.000000
                                    CHANNELS 3 Zrotation Xrotation Yrotation
                                    JOINT RightFinger22
                                    {
                                        OFFSET  -2.788160   0.000000   0.000000
                                        CHANNELS 3 Zrotation Xrotation Yrotation
                                        End Site
                                        {
                                            OFFSET  -2.727660   0.000000   0.000000
                                        }
                                    }
                                }
                            }
                            JOINT RightFinger3
                            {
                                OFFSET  -7.899780   0.000000  -1.078090
                                CHANNELS 3 Zrotation Xrotation Yrotation
                                JOINT RightFinger31
                                {
                                    OFFSET  -4.646930   0.000000   0.000000
                                    CHANNELS 3 Zrotation Xrotation Yrotation
                                    JOINT RightFinger32
                                    {
                                        OFFSET  -2.323470   0.000000   0.000000
                                        CHANNELS 3 Zrotation Xrotation Yrotation
                                        End Site
                                        {
                                            OFFSET  -2.273050   0.000000   0.000000
                                        }
                                    }
                                }
                            }
                            JOINT RightFinger4
                            {
                                OFFSET  -7.435090   0.000000  -3.252850
                                CHANNELS 3 Zrotation Xrotation Yrotation
                                JOINT RightFinger41
                                {
                                    OFFSET  -3.717550   0.000000   0.000000
                                    CHANNELS 3 Zrotation Xrotation Yrotation
                                    JOINT RightFinger42
                                    {
                                        OFFSET  -1.858760   0.000000   0.000000
                                        CHANNELS 3 Zrotation Xrotation Yrotation
                                        End Site
                                        {
                                            OFFSET  -1.818440   0.000000   0.000000
                                        }
                                    }
                                }
                            }
                        }
                    }
                }
            }
        }
    }
    JOINT LeftHip
    {
        OFFSET   9.783010   0.000000   0.000000
        CHANNELS 3 Zrotation Xrotation Yrotation
        JOINT LeftKnee
        {
            OFFSET   0.000073 -41.789100   0.001749
            CHANNELS 3 Zrotation Xrotation Yrotation
            JOINT LeftAnkle
            {
                OFFSET   0.000111 -41.133200  -0.000179
                CHANNELS 3 Zrotation Xrotation Yrotation
                JOINT LeftToe
                {
                    OFFSET   0.000000  -6.358960  14.674500
                    CHANNELS 3 Zrotation Xrotation Yrotation
                    End Site
                    {
                        OFFSET   0.000000   0.000000   3.913200
                    }
                }
            }
        }
    }
    JOINT RightHip
    {
        OFFSET  -9.783010   0.000000   0.000000
        CHANNELS 3 Zrotation Xrotation Yrotation
        JOINT RightKnee
        {
            OFFSET   0.000424 -41.789200   0.005205
            CHANNELS 3 Zrotation Xrotation Yrotation
            JOINT RightAnkle
            {
                OFFSET   0.000000 -41.133200  -0.000155
                CHANNELS 3 Zrotation Xrotation Yrotation
                JOINT RightToe
                {
                    OFFSET   0.000000  -6.358960  14.674500
                    CHANNELS 3 Zrotation Xrotation Yrotation
                    End Site
                    {
                        OFFSET   0.000000   0.000000   3.913200
                    }
                }
            }
        }
    }
}
MOTION
Frames: 4
Frame Time:   0.016667
  4.049180  89.120200   2.479690   2.331030 -23.610400  15.945600  -3.109390  12.332500   5.384550  -7.690250  24.282000  11.880600   4.424660   0.476176  -0.036742   7.270410   0.948443 -11.243900  -3.575780 -10.503700  -5.404070 -65.261400  13.458600  -3.059160   0.832402  -1.197690 -14.587100  12.094500  -2.748910  -2.808640  40.790200  33.184900 -71.940200 -25.334000  -0.001551  -0.000706  -7.668520  -0.498674  -0.170411 -25.183300   5.207500 -10.925400 -21.013200   0.020710   0.028054 -14.709200  -0.000806   0.027200 -27.458800  -0.163312   0.314335 -29.007100   0.002329   0.000269 -19.318700  -0.040423   0.045095 -28.014900  -0.166353   0.312729 -32.101700  -0.001981  -0.000268 -21.379700  -0.000957   0.010842 -29.140400  -0.172585   0.309246 -43.711900   0.001822  -0.000000 -29.112100  -0.000770   0.007426   1.083110 -11.967500   5.857880  -0.796688 -24.319800  56.365100 -14.954500  11.773200   6.145320  -7.247460 -20.738400  19.070800 -38.067100  33.950800  60.558800  35.397200   0.001756  -0.001102  12.698500   0.005006   0.000756  88.996900   4.999430   0.079013  90.911900   0.005837  -0.009430  68.183900  -0.003733  -0.005858  89.000000  -0.004597  -0.001348 102.490000   0.005094  -0.011821  76.867200  -0.003101  -0.005229  88.996000  -4.999360  -0.090257 101.522000   0.001741  -0.009655  76.142100  -0.004011  -0.004848  88.984600 -10.001100  -0.176310 110.000000  -0.006736   0.000952  80.000000  -0.001008   0.001207   1.017520  22.452300  -0.033853   2.150230   4.329370  -0.985224  -1.266040  -4.487840  -3.939870  -0.000000   0.000000   0.000000   0.207819  12.389100  -3.890240   2.174470  31.089700 -28.272900   7.229810  -4.789470   6.493920  -0.000000   0.000000  -0.000000
  4.096370  89.120200   2.482730   2.039150 -23.632700  15.392500  -3.010800  12.261200   5.313530  -7.459400  24.156300  11.702000   4.348550   0.414320  -0.031259   7.144910   0.825574 -11.085800  -3.713560 -10.423100  -5.436830 -65.287800  13.332500  -2.817970   0.837034  -1.182320 -14.683900  12.076700  -2.777970  -2.819820  40.785300  33.158800 -71.900900 -25.332400  -0.001547  -0.000705  -7.666700  -0.253902  -0.118676 -25.159700   5.117920 -10.754400 -20.981800   0.004909   0.015383 -14.687200  -0.005650   0.010993 -27.455700  -0.152535   0.293661 -28.992600  -0.015051   0.000268 -19.309100  -0.040944   0.025481 -28.014400  -0.155408   0.292149 -32.098800  -0.001978  -0.000270 -21.377800  -0.000958   0.018948 -29.135000  -0.161213   0.288587 -43.703900   0.001823   0.000000 -29.106800  -0.000769   0.007301   1.163100 -11.741800   5.830480  -0.643258 -23.023600  56.203100 -14.560800  12.323200   6.572880  -7.818630 -20.375400  18.882400 -38.074300  33.999700  61.097600  35.216400   0.001759  -0.001103  12.608200   0.005212   0.000877  88.996900   4.999400   0.078960  90.713400   0.006131  -0.009774  68.035000  -0.003980  -0.006194  89.000000  -0.004656  -0.001285 102.272000   0.005430  -0.012248  76.704000  -0.003323  -0.005544  88.996000  -4.999350  -0.090273 101.386000   0.002649  -0.009991  76.039800  -0.004274  -0.005132  88.984600 -10.001100  -0.176320 110.000000  -0.006773   0.000952  80.000000  -0.000926   0.001096   1.101460  22.512000  -0.091797   2.043760   4.256370  -0.695974  -1.181540  -4.479030  -3.698110  -0.000000   0.000000   0.000000   0.307335  12.349400  -3.811350   1.991670  31.023100 -28.031100   7.206900  -4.650120   6.685890  -0.000000   0.000000   0.000000
  4.133960  89.124200   2.486210   1.716180 -23.638300  14.794500  -2.904710  12.182200   5.240770  -7.211890  24.015900  11.517400   4.266710   0.348587  -0.025662   7.010270   0.695266 -10.926600  -3.860360 -10.370600  -5.401250 -65.340700  13.301300  -2.601920   0.854880  -1.188430 -14.779800  12.076600  -2.699340  -2.931060  40.891100  33.311400 -72.261600 -25.169300  -0.001541  -0.000682  -7.584670  -0.119125  -0.028336 -25.194500   5.226030 -10.956300 -21.025100  -0.029042  -0.081203 -14.717500   0.023841  -0.060978 -27.476900  -0.027800   0.053606 -29.089500  -0.038786   0.000271 -19.373700  -0.020231  -0.021285 -28.030600  -0.028344   0.053299 -32.199700  -0.001979  -0.000271 -21.445000  -0.000957  -0.063669 -29.202500  -0.029175   0.052410 -43.803300   0.001824   0.000000 -29.173000  -0.000771   0.007163   1.247020 -11.497900   5.847530  -0.399330 -21.508500  56.138800 -14.191900  12.371600   6.903410  -8.463610 -19.681800  18.570100 -37.862200  33.615500  61.434900  35.118200   0.002996  -0.001931  12.559100   0.005429   0.000981  88.997000   4.999370   0.078911  90.818300   0.006440  -0.010199  68.113700  -0.004260  -0.006548  89.000000  -0.004704  -0.001217 102.393000   0.005783  -0.012798  76.795000  -0.003441  -0.005862  88.996000  -4.999340  -0.090280 101.467000   0.003733  -0.010394  76.100800  -0.004565  -0.005432  88.984600 -10.001200  -0.176317 110.000000  -0.006809   0.000928  80.000000  -0.000827   0.000978   1.193360  22.578400  -0.165597   1.953290   4.158420  -0.329758  -1.102880  -4.470630  -3.484760  -0.000000   0.000000  -0.000000   0.409964  12.237400  -3.733010   1.824110  30.988800 -27.775100   7.173700  -4.524370   6.896140  -0.000000   0.000000   0.000000
  4.162330  89.132600   2.491750   1.368890 -23.627100  14.158100  -2.791050  12.092200   5.178300  -6.949850  23.853200  11.351500   4.177280   0.278784  -0.019995   6.863370   0.556710 -10.792500  -4.016720 -10.322600  -5.348630 -65.398700  13.298400  -2.400050   0.889674  -1.194430 -14.894100  12.084800  -2.620740  -3.033690  41.002000  33.453100 -72.629900 -25.007600  -0.001537  -0.000651  -7.503780  -0.035404   0.033589 -25.252200   5.377360 -11.235100 -21.094100  -0.053042  -0.166775 -14.765600   0.055314  -0.119057 -27.501100   0.086448  -0.166314 -29.205800  -0.070549   0.000273 -19.451100   0.000482  -0.073941 -28.053100   0.088066  -0.165508 -32.349000  -0.001980  -0.000271 -21.544400  -0.000956  -0.152389 -29.302300   0.091825  -0.163650 -43.952600   0.001825   0.000000 -29.272400  -0.000772   0.007005   1.334100 -11.217200   5.863900   0.122222 -19.853300  56.163100 -13.932100  12.370100   7.272020  -8.988750 -18.964400  18.207000 -37.533900  33.167600  61.844600  34.998200   0.005156  -0.003376  12.499100   0.005655   0.001149  88.996900   4.999350   0.078867  90.923200   0.006754  -0.010452  68.192300  -0.004563  -0.006924  89.000000  -0.004746  -0.001149 102.515000   0.006160  -0.013130  76.886000  -0.003811  -0.006190  88.995900  -4.999310  -0.090284 101.549000   0.004884  -0.010632  76.161700  -0.004891  -0.005745  88.984600 -10.001200  -0.176314 110.000000  -0.006844   0.000893  80.000000  -0.000722   0.000861   1.287840  22.639100  -0.213105   1.874180   4.052150   0.063748  -1.031590  -4.466740  -3.280320   0.000000   0.000000   0.000000   0.521067  12.126900  -3.664040   1.659410  30.910100 -27.512900   7.123210  -4.414900   7.133440   0.000000   0.000000   0.000000
